inDegrees=yes
name=ik_Shooting_orientations
DataType=double
version=3
OpenSimVersion=4.3-2021-08-27-4bc7ad9
endheader
time	pelvis_tilt	pelvis_list	pelvis_rotation	pelvis_tx	pelvis_ty	pelvis_tz	hip_flexion_r	hip_adduction_r	hip_rotation_r	knee_angle_r	knee_angle_r_beta	ankle_angle_r	subtalar_angle_r	mtp_angle_r	hip_flexion_l	hip_adduction_l	hip_rotation_l	knee_angle_l	knee_angle_l_beta	ankle_angle_l	subtalar_angle_l	mtp_angle_l	lumbar_extension	lumbar_bending	lumbar_rotation	arm_flex_r	arm_add_r	arm_rot_r	elbow_flex_r	pro_sup_r	wrist_flex_r	wrist_dev_r	arm_flex_l	arm_add_l	arm_rot_l	elbow_flex_l	pro_sup_l	wrist_flex_l	wrist_dev_l
9.779999999999999	7.337845401862292	7.587183763936726	62.85212024004222	0	0.9399999999999999	0	45.00000011891179	-9.999999988573334	0	60.00014061995966	1.047200005477888	-4.999999851047217	0	0	45.00000011891179	-9.999999988573334	0	60.00014061995966	1.047200005477888	-4.999999851047217	0	0	-6.493255266462378	-4.449986235580061	-0.6452732791291192	89.86269279738147	-81.66401835257294	-11.98335527422937	31.9859122847149	45.00000025534055	0	0	0	-15.00000100033122	0	75.00017584621551	45.00000025534055	0	0
9.789999999999999	7.337307596124918	7.586270462102198	62.84396474315135	0	0.9399999999999999	0	45.00000011890376	-9.999999988573334	0	60.00014061990709	1.04720000547697	-4.999999851047217	0	0	45.00000011890376	-9.999999988573334	0	60.00014061990709	1.04720000547697	-4.999999851047217	0	0	-7.293139431562624	1.475124609786092	-0.6652473765687608	49.68886411695448	-36.63664831282453	26.18765952163627	0.00217286100834687	45.00000025534055	0	0	0	-15.00000090631364	0	75.00017584620464	45.00000025534055	0	0
9.800000000000001	7.32569323321236	7.577872182054575	62.85233387273504	0	0.9399999999999999	0	45.00000011890113	-9.999999988573334	0	60.00014061988965	1.047200005476666	-4.999999851047217	0	0	45.00000011890113	-9.999999988573334	0	60.00014061988965	1.047200005476666	-4.999999851047217	0	0	-7.297532108415743	1.454342499234179	-0.7013075470217536	6.119934894027585	-20.99378918818331	1.498467356033089	0.001236758428778012	45.00000025534055	0	0	0	-15.00000087290806	0	75.000175846201	45.00000025534055	0	0
9.81	7.336403885178231	7.572301983544983	62.83573449862778	0	0.9399999999999999	0	45.00000011890072	-9.999999988573334	0	60.00014061988689	1.047200005476618	-4.999999851047217	0	0	45.00000011890072	-9.999999988573334	0	60.00014061988689	1.047200005476618	-4.999999851047217	0	0	-7.315454567664958	1.480561044605366	-0.6582244666217014	25.61833381312221	-24.17472859486201	18.97498514521868	0.001554824773774433	45.00000025534055	0	0	0	-15.00000086732784	0	75.00017584620039	45.00000025534055	0	0
9.82	7.338171022218395	7.556167964428574	62.83044553051764	0	0.9399999999999999	0	45.00000011890007	-9.999999988573334	0	60.00014061988276	1.047200005476546	-4.999999851047217	0	0	45.00000011890007	-9.999999988573334	0	60.00014061988276	1.047200005476546	-4.999999851047217	0	0	-7.310257191328358	1.477896446870918	-0.6415538049849951	70.72506549087994	-1.039438263278811	41.20456595767089	0.004740957324305292	45.00000025534055	0	0	0	-15.00000085880992	0	75.00017584619954	45.00000025534055	0	0
9.83	7.323954492526453	7.555985746411836	62.82829525087877	0	0.9399999999999999	0	45.00000011889944	-9.999999988573334	0	60.00014061987936	1.047200005476486	-4.999999851047217	0	0	45.00000011889944	-9.999999988573334	0	60.00014061987936	1.047200005476486	-4.999999851047217	0	0	-7.306273077141247	1.465417662253954	-0.6507198595537095	24.97818375062321	-52.60832058905311	-4.280652659461121	0.001751999278261459	45.00000025534055	0	0	0	-15.00000085133479	0	75.0001758461987	45.00000025534055	0	0
9.84	7.316248946274195	7.550746697035106	62.8263855599249	0	0.9399999999999999	0	45.00000011889907	-9.999999988573334	0	60.00014061987685	1.047200005476443	-4.999999851047217	0	0	45.00000011889907	-9.999999988573334	0	60.00014061987685	1.047200005476443	-4.999999851047217	0	0	-7.302440041605355	1.458422217843	-0.6460582438280269	37.88441155761745	-51.87023668609397	18.52931825906169	0.001892194824433687	45.00000025534055	0	0	0	-15.00000084618934	0	75.0001758461982	45.00000025534055	0	0
9.85	7.296722275424695	7.536538473213832	62.84278591032609	0	0.9399999999999999	0	45.0000001188987	-9.999999988573334	0	60.00014061987442	1.0472000054764	-4.999999851047217	0	0	45.0000001188987	-9.999999988573334	0	60.00014061987442	1.0472000054764	-4.999999851047217	0	0	-7.280022536869267	1.442112120238641	-0.6592469058900584	56.35898269225319	-40.04221815096111	44.14795132773101	0.002414888909455076	45.00000025534055	0	0	0	-15.00000084126982	0	75.00017584619772	45.00000025534055	0	0
9.859999999999999	7.296191865659357	7.524184870387973	62.82798472629204	0	0.9399999999999999	0	45.00000011889846	-9.999999988573334	0	60.00014061987296	1.047200005476375	-4.999999851047217	0	0	45.00000011889846	-9.999999988573334	0	60.00014061987296	1.047200005476375	-4.999999851047217	0	0	-7.269464669952953	1.441283279362421	-0.647210305966116	65.04102684100333	-26.93875119173095	55.13059985286444	0.003248362842827484	45.00000025534055	0	0	0	-15.00000083820007	0	75.00017584619746	45.00000025534055	0	0
9.869999999999999	7.300704930186521	7.518466213179907	62.8265418400337	0	0.9399999999999999	0	45.0000001188979	-9.999999988573334	0	60.00014061986938	1.047200005476312	-4.999999851047217	0	0	45.0000001188979	-9.999999988573334	0	60.00014061986938	1.047200005476312	-4.999999851047217	0	0	-7.268356672137291	1.446677901491955	-0.6549991383956644	28.25026560401182	-40.54543236757144	13.59353645337684	0.00166874002386045	45.00000025534055	0	0	0	-15.00000083081549	0	75.00017584619668	45.00000025534055	0	0
9.880000000000001	7.283658678434401	7.511173500561069	62.82304978377618	0	0.9399999999999999	0	45.00000011889753	-9.999999988573334	0	60.00014061986717	1.047200005476274	-4.999999851047217	0	0	45.00000011889753	-9.999999988573334	0	60.00014061986717	1.047200005476274	-4.999999851047217	0	0	-7.25852475330706	1.447843769690857	-0.6561758376835188	15.95168620757135	-40.87994312740147	-5.345230850312153	0.001507816795043315	45.00000025534055	0	0	0	-15.0000008261445	0	75.00017584619624	45.00000025534055	0	0
9.890000000000001	7.275700475093065	7.50414799846953	62.82889693079444	0	0.9399999999999999	0	45.00000011889697	-9.999999988573334	0	60.00014061986365	1.047200005476212	-4.999999851047217	0	0	45.00000011889697	-9.999999988573334	0	60.00014061986365	1.047200005476212	-4.999999851047217	0	0	-7.256046049244075	1.442023693820851	-0.6918827097574265	-1.763727789002901	-41.52255471271925	-52.57685942024126	0.001517784456286709	45.00000025534055	0	0	0	-15.00000081865051	0	75.00017584619555	45.00000025534055	0	0
9.9	7.270725679782898	7.490277268757751	62.82224148935436	0	0.9399999999999999	0	45.0000001188959	-9.999999988573334	0	60.00014061985733	1.047200005476102	-4.999999851047217	0	0	45.0000001188959	-9.999999988573334	0	60.00014061985733	1.047200005476102	-4.999999851047217	0	0	-7.398269932693457	0.493523211316383	-16.09823309143768	-3.578716710651279	-65.60188134986143	-89.98128870270747	0.002885172436576221	45.00000025534055	0	0	0	-15.00000080476605	0	75.00017584619411	45.00000025534055	0	0
